<?xml version="1.0" encoding="UTF-8" standalone="no"?>
<!-- Created with Inkscape (http://www.inkscape.org/) -->

<svg
   width="96"
   height="96"
   viewBox="0 0 25.399999 25.399999"
   version="1.1"
   id="svg1"
   inkscape:version="1.4 (86a8ad7, 2024-10-11)"
   sodipodi:docname="team_logo.svg"
   inkscape:export-filename="logo.png"
   inkscape:export-xdpi="192"
   inkscape:export-ydpi="192"
   xmlns:inkscape="http://www.inkscape.org/namespaces/inkscape"
   xmlns:sodipodi="http://sodipodi.sourceforge.net/DTD/sodipodi-0.dtd"
   xmlns="http://www.w3.org/2000/svg"
   xmlns:svg="http://www.w3.org/2000/svg">
  <sodipodi:namedview
     id="namedview1"
     pagecolor="#505050"
     bordercolor="#eeeeee"
     borderopacity="1"
     inkscape:showpageshadow="0"
     inkscape:pageopacity="0"
     inkscape:pagecheckerboard="0"
     inkscape:deskcolor="#505050"
     inkscape:document-units="px"
     inkscape:zoom="6.0304879"
     inkscape:cx="54.804852"
     inkscape:cy="51.156723"
     inkscape:window-width="1920"
     inkscape:window-height="1009"
     inkscape:window-x="303"
     inkscape:window-y="-8"
     inkscape:window-maximized="1"
     inkscape:current-layer="g6"
     showgrid="true">
    <inkscape:grid
       id="grid1"
       units="px"
       originx="0"
       originy="0"
       spacingx="0.52916664"
       spacingy="0.52916664"
       empcolor="#0099e5"
       empopacity="0.30196078"
       color="#0099e5"
       opacity="0.14901961"
       empspacing="4"
       enabled="false"
       visible="true" />
  </sodipodi:namedview>
  <defs
     id="defs1" />
  <g
     inkscape:label="logo"
     inkscape:groupmode="layer"
     id="g6"
     transform="translate(-4.233333,-3.4270481)">
    <path
       id="path4"
       style="fill:#ffffff;fill-opacity:1;stroke-width:1.05833329;stroke-linecap:round;stroke-linejoin:round;paint-order:markers stroke fill;stroke:#000000;stroke-opacity:1;stroke-dasharray:none"
       inkscape:label="head"
       d="M 13.680818 7.9125622 C 13.150618 7.9172122 12.369271 9.2194562 10.583333 12.196022 C 9.7416662 13.598797 8.6725402 15.49781 8.2134517 17.375033 L 6.9664994 16.935784 A 0.2645835 0.2645835 0 0 0 6.6300858 17.097531 A 0.2645835 0.2645835 0 0 0 6.7902828 17.435495 L 8.1028641 17.897482 C 8.0489588 18.195877 8.0118893 18.492486 7.9958939 18.785283 L 6.3489661 18.785283 A 0.2645835 0.2645835 0 0 0 6.0854163 19.0509 A 0.2645835 0.2645835 0 0 0 6.3489661 19.31445 L 7.9917598 19.31445 C 8.0030058 19.610493 8.0382333 19.901003 8.1033809 20.183647 L 6.7923498 20.638917 A 0.2645835 0.2645835 0 0 0 6.6285355 20.976364 A 0.2645835 0.2645835 0 0 0 6.9664994 21.138628 L 8.254276 20.69111 C 8.3143947 20.852919 8.3840617 21.011724 8.4666662 21.166533 C 9.8856108 23.825781 13.919201 24.341533 16.933332 24.341533 C 19.947476 24.341533 23.981054 23.825781 25.399999 21.166533 C 25.48261 21.01171 25.552395 20.852953 25.612389 20.69111 L 26.900166 21.138628 A 0.2645835 0.2645835 0 0 0 27.238129 20.976364 A 0.2645835 0.2645835 0 0 0 27.074315 20.638917 L 25.7607 20.182614 C 25.825541 19.899941 25.865932 19.610377 25.878006 19.31445 L 27.517699 19.31445 A 0.2645835 0.2645835 0 0 0 27.781249 19.0509 A 0.2645835 0.2645835 0 0 0 27.517699 18.785283 L 25.873872 18.785283 C 25.85862 18.492195 25.821489 18.19523 25.767418 17.896449 L 27.076382 17.435495 A 0.2645835 0.2645835 0 0 0 27.236579 17.097531 A 0.2645835 0.2645835 0 0 0 26.900166 16.935784 L 25.654764 17.374517 C 25.195503 15.497694 24.12512 13.599001 23.283332 12.196022 C 20.108332 6.9043522 20.108332 6.9043547 19.049999 10.079355 C 18.798827 10.832868 18.550348 11.562534 18.305858 12.286455 C 17.286968 12.157719 16.439032 12.175492 15.560807 12.286455 C 15.316317 11.562534 15.067838 10.832868 14.816666 10.079355 C 14.353646 8.6902921 14.093196 7.9089449 13.680818 7.9125622 z M 13.019876 16.078472 C 13.257031 16.080157 13.524393 16.097084 13.800707 16.142551 C 14.901944 16.323758 15.494144 16.713058 15.494144 16.713058 A 0.2645835 0.2645835 0 0 1 15.566491 17.079961 A 0.2645835 0.2645835 0 0 1 15.199072 17.152308 C 15.199072 17.152308 14.730353 16.83312 13.714924 16.666033 C 12.937265 16.538025 12.218892 16.663966 12.218892 16.663966 A 0.2645835 0.2645835 0 0 1 11.910383 16.451059 A 0.2645835 0.2645835 0 0 1 12.12329 16.144618 C 12.12329 16.144618 12.498136 16.074765 13.019876 16.078472 z M 20.845238 16.078472 C 21.366978 16.074766 21.742341 16.144618 21.742341 16.144618 A 0.2645835 0.2645835 0 0 1 21.956798 16.451059 A 0.2645835 0.2645835 0 0 1 21.64829 16.663966 C 21.64829 16.663966 20.927849 16.538071 20.15019 16.666033 C 19.13476 16.83312 18.66811 17.152308 18.66811 17.152308 A 0.2645835 0.2645835 0 0 1 18.300691 17.079961 A 0.2645835 0.2645835 0 0 1 18.373038 16.713058 C 18.373038 16.713058 18.963171 16.323758 20.064407 16.142551 C 20.340721 16.097098 20.608084 16.080156 20.845238 16.078472 z M 14.814599 17.726433 A 0.2645835 0.2645835 0 0 1 15.06833 17.908334 C 15.183888 18.255008 15.320875 18.365442 15.45487 18.410112 C 15.588866 18.454773 15.770567 18.428806 15.968534 18.343966 C 16.364468 18.17428 16.746264 17.804465 16.746264 17.804465 A 0.26460996 0.26460996 0 0 1 17.120918 17.804465 C 17.120918 17.804465 17.500648 18.17428 17.896581 18.343966 C 18.094548 18.428816 18.278317 18.454772 18.412312 18.410112 C 18.546308 18.365447 18.683294 18.255008 18.798852 17.908334 A 0.2645835 0.2645835 0 0 1 19.132681 17.740386 A 0.2645835 0.2645835 0 0 1 19.30063 18.076283 C 19.151605 18.523359 18.892749 18.807727 18.58026 18.91189 C 18.267771 19.016054 17.954413 18.943837 17.689359 18.830242 C 17.264519 18.648168 17.055862 18.424219 16.933849 18.308826 C 16.811835 18.424219 16.602664 18.648168 16.177823 18.830242 C 15.91277 18.943832 15.59941 19.016053 15.286921 18.91189 C 14.974433 18.807727 14.715578 18.523359 14.566552 18.076283 A 0.2645835 0.2645835 0 0 1 14.732433 17.740386 A 0.2645835 0.2645835 0 0 1 14.814599 17.726433 z " />
  </g>
</svg>
